<!DOCTYPE svg PUBLIC "-//W3C//DTD SVG 1.1//EN" "http://www.w3.org/Graphics/SVG/1.1/DTD/svg11.dtd">
<!-- Uploaded to: SVG Repo, www.svgrepo.com, Transformed by: SVG Repo Mixer Tools -->
<svg fill="#000000" width="100px" height="100px" viewBox="0 0 24 24" xmlns="http://www.w3.org/2000/svg" transform="matrix(-1, 0, 0, 1, 0, 0)">
<g id="SVGRepo_bgCarrier" stroke-width="0"/>
<g id="SVGRepo_tracerCarrier" stroke-linecap="round" stroke-linejoin="round"/>
<g id="SVGRepo_iconCarrier">
<path d="M6,23H20a1,1,0,0,0,1-1V2a1,1,0,0,0-1-1H6A3,3,0,0,0,3,4V20A3,3,0,0,0,6,23ZM5,4A1,1,0,0,1,6,3H7v9l2.5-2L12,12V3h7V21H6a1,1,0,0,1-1-1Z"/>
</g>
</svg>