<!DOCTYPE svg PUBLIC "-//W3C//DTD SVG 1.1//EN" "http://www.w3.org/Graphics/SVG/1.1/DTD/svg11.dtd">

<!-- Uploaded to: SVG Repo, www.svgrepo.com, Transformed by: SVG Repo Mixer Tools -->
<svg width="100px" height="100px" viewBox="0 0 1024 1024" class="icon" version="1.1" xmlns="http://www.w3.org/2000/svg" fill="#000000">

<g id="SVGRepo_bgCarrier" stroke-width="0"/>

<g id="SVGRepo_tracerCarrier" stroke-linecap="round" stroke-linejoin="round" stroke="#CCCCCC" stroke-width="2.832"/>

<g id="SVGRepo_iconCarrier">

<path d="M706.3 422.3V94H542.2v328.3l82.1-82 82 82zM788.4 94h-49.3v49.3h49.3c4.5 0 8.2 3.7 8.2 8.2v722.4c0 4.5-3.7 8.2-8.2 8.2H230.2c-4.5 0-8.2-3.7-8.2-8.2V151.5c0-4.5 3.7-8.2 8.2-8.2h279.1V94H230.2c-31.7 0-57.5 25.8-57.5 57.5v722.4c0 31.7 25.8 57.5 57.5 57.5h558.3c31.7 0 57.5-25.8 57.5-57.5V151.5c-0.1-31.7-25.9-57.5-57.6-57.5z" fill="#000000"/>

</g>

</svg>